<svg width="35" height="38" viewBox="0 0 35 38" fill="none" xmlns="http://www.w3.org/2000/svg">
<g id="Iconly/Light-Outline/Calendar">
<g id="Calendar">
<path id="Combined-Shape" fill-rule="evenodd" clip-rule="evenodd" d="M24.3791 0C25.1108 0 25.7047 0.593858 25.7047 1.32558L25.7055 2.82402C28.2861 3.00095 30.4294 3.8849 31.9464 5.40499C33.6025 7.06814 34.4738 9.45948 34.465 12.328V28.4523C34.465 34.3414 30.7251 38 24.707 38H9.758C3.73989 38 0 34.2902 0 28.318V12.3245C0 6.76979 3.33525 3.20425 8.77475 2.82463L8.77584 1.32558C8.77584 0.593858 9.3697 0 10.1014 0C10.8331 0 11.427 0.593858 11.427 1.32558L11.4265 2.79078H23.0526L23.0535 1.32558C23.0535 0.593858 23.6474 0 24.3791 0ZM31.8138 15.7372H2.65115V28.318C2.65115 32.8532 5.17505 35.3489 9.758 35.3489H24.707C29.2899 35.3489 31.8139 32.8992 31.8139 28.4523L31.8138 15.7372ZM25.0997 26.8585C25.8314 26.8585 26.4253 27.4523 26.4253 28.184C26.4253 28.9157 25.8314 29.5096 25.0997 29.5096C24.368 29.5096 23.767 28.9157 23.767 28.184C23.767 27.4523 24.3521 26.8585 25.0838 26.8585H25.0997ZM17.2567 26.8585C17.9884 26.8585 18.5823 27.4523 18.5823 28.184C18.5823 28.9157 17.9884 29.5096 17.2567 29.5096C16.525 29.5096 15.924 28.9157 15.924 28.184C15.924 27.4523 16.5091 26.8585 17.2408 26.8585H17.2567ZM9.39727 26.8585C10.129 26.8585 10.7228 27.4523 10.7228 28.184C10.7228 28.9157 10.129 29.5096 9.39727 29.5096C8.66555 29.5096 8.06286 28.9157 8.06286 28.184C8.06286 27.4523 8.64964 26.8585 9.38136 26.8585H9.39727ZM25.0997 19.989C25.8314 19.989 26.4253 20.5828 26.4253 21.3145C26.4253 22.0463 25.8314 22.6401 25.0997 22.6401C24.368 22.6401 23.767 22.0463 23.767 21.3145C23.767 20.5828 24.3521 19.989 25.0838 19.989H25.0997ZM17.2567 19.989C17.9884 19.989 18.5823 20.5828 18.5823 21.3145C18.5823 22.0463 17.9884 22.6401 17.2567 22.6401C16.525 22.6401 15.924 22.0463 15.924 21.3145C15.924 20.5828 16.5091 19.989 17.2408 19.989H17.2567ZM9.39727 19.989C10.129 19.989 10.7228 20.5828 10.7228 21.3145C10.7228 22.0463 10.129 22.6401 9.39727 22.6401C8.66555 22.6401 8.06286 22.0463 8.06286 21.3145C8.06286 20.5828 8.64964 19.989 9.38136 19.989H9.39727ZM23.0526 5.44193H11.4265L11.427 7.1422C11.427 7.87392 10.8331 8.46778 10.1014 8.46778C9.3697 8.46778 8.77584 7.87392 8.77584 7.1422L8.7749 5.48205C4.81544 5.81467 2.65115 8.21478 2.65115 12.3245V13.0861H31.8138L31.8139 12.3245C31.8209 10.1417 31.2341 8.44498 30.0693 7.27847C29.0469 6.25302 27.5523 5.64059 25.7062 5.4829L25.7047 7.1422C25.7047 7.87392 25.1108 8.46778 24.3791 8.46778C23.6474 8.46778 23.0535 7.87392 23.0535 7.1422L23.0526 5.44193Z" fill="#62F4F4"/>
</g>
</g>
</svg>
