<svg width="28" height="32" viewBox="0 0 28 32" fill="none" xmlns="http://www.w3.org/2000/svg">
<g id="Iconly/Bold/Document">
<g id="Document">
<path id="Vector" d="M20.5193 0C25.3244 0 28 2.76889 28 7.51333V23.5822C28 28.4044 25.3244 31.1111 20.5193 31.1111H7.48222C2.75333 31.1111 0 28.4044 0 23.5822V7.51333C0 2.76889 2.75333 0 7.48222 0H20.5193ZM7.90222 21.3733C7.43556 21.3267 6.98444 21.5444 6.73556 21.9489C6.48667 22.3378 6.48667 22.8511 6.73556 23.2556C6.98444 23.6444 7.43556 23.8778 7.90222 23.8156H20.0978C20.7184 23.7533 21.1867 23.2229 21.1867 22.6022C21.1867 21.9644 20.7184 21.4356 20.0978 21.3733H7.90222ZM20.0978 14.2784H7.90222C7.23178 14.2784 6.68889 14.8244 6.68889 15.4933C6.68889 16.1622 7.23178 16.7067 7.90222 16.7067H20.0978C20.7667 16.7067 21.3111 16.1622 21.3111 15.4933C21.3111 14.8244 20.7667 14.2784 20.0978 14.2784ZM12.5518 7.23333H7.90222V7.24889C7.23178 7.24889 6.68889 7.79333 6.68889 8.46222C6.68889 9.13111 7.23178 9.67556 7.90222 9.67556H12.5518C13.2222 9.67556 13.7667 9.13111 13.7667 8.44511C13.7667 7.77778 13.2222 7.23333 12.5518 7.23333Z" fill="#24CCCC"/>
</g>
</g>
</svg>
