<svg width="34" height="36" viewBox="0 0 34 36" fill="none" xmlns="http://www.w3.org/2000/svg">
<g id="Iconly/Bold/Home">
<g id="Home">
<path id="Vector" d="M11.6443 33.4027V28.0363C11.6443 26.6664 12.7629 25.5559 14.1428 25.5559H19.1871C19.8498 25.5559 20.4853 25.8172 20.9539 26.2824C21.4225 26.7476 21.6857 27.3785 21.6857 28.0363V33.4027C21.6815 33.9722 21.9065 34.5199 22.3107 34.924C22.7149 35.3282 23.2648 35.5555 23.8385 35.5555H27.28C28.8873 35.5597 30.4301 34.9287 31.5681 33.8019C32.7061 32.6751 33.3457 31.1451 33.3457 29.5495V14.2615C33.3457 12.9726 32.7701 11.75 31.7743 10.923L20.0671 1.64101C18.0306 0.0135508 15.1128 0.0660973 13.1371 1.76581L1.69714 10.923C0.654173 11.7256 0.0308049 12.9518 0 14.2615V29.5339C0 32.8596 2.71571 35.5555 6.06571 35.5555H9.42856C10.6201 35.5555 11.5885 34.6012 11.5971 33.4183L11.6443 33.4027Z" fill="white"/>
</g>
</g>
</svg>
