<svg width="38" height="38" viewBox="0 0 38 38" fill="none" xmlns="http://www.w3.org/2000/svg">
<g id="Iconly/Light-Outline/Plus">
<g id="Plus">
<path id="Combined-Shape" fill-rule="evenodd" clip-rule="evenodd" d="M27.2822 0C33.6927 0 38 4.49991 38 11.1967V26.8033C38 33.5001 33.6927 38 27.2822 38H10.7178C4.30726 38 0 33.5001 0 26.8033V11.1967C0 4.49991 4.30726 0 10.7178 0H27.2822ZM27.2822 2.65116H10.7178C5.81842 2.65116 2.65116 6.004 2.65116 11.1967V26.8033C2.65116 31.996 5.81842 35.3488 10.7178 35.3488H27.2822C32.1833 35.3488 35.3488 31.996 35.3488 26.8033V11.1967C35.3488 6.004 32.1833 2.65116 27.2822 2.65116ZM19 11.1831C19.7317 11.1831 20.3256 11.777 20.3256 12.5087V17.6567L25.4803 17.6571C26.212 17.6571 26.8059 18.251 26.8059 18.9827C26.8059 19.7144 26.212 20.3083 25.4803 20.3083L20.3256 20.3079V25.4588C20.3256 26.1905 19.7317 26.7843 19 26.7843C18.2683 26.7843 17.6744 26.1905 17.6744 25.4588V20.3079L12.5197 20.3083C11.7862 20.3083 11.1941 19.7144 11.1941 18.9827C11.1941 18.251 11.7862 17.6571 12.5197 17.6571L17.6744 17.6567V12.5087C17.6744 11.777 18.2683 11.1831 19 11.1831Z" fill="#62F4F4"/>
</g>
</g>
</svg>
