<svg width="35" height="35" viewBox="0 0 35 35" fill="none" xmlns="http://www.w3.org/2000/svg">
<g id="Iconly/Bold/Search">
<g id="Search">
<path id="Vector" d="M26.7481 27.1142C27.4099 26.4568 28.4709 26.4568 29.1327 27.1142L33.5072 30.6453H33.5832C34.4682 31.5398 34.4682 32.9901 33.5832 33.8847C32.6981 34.7792 31.2633 34.7792 30.3783 33.8847L26.7481 29.7241L26.6103 29.5687C26.3537 29.2439 26.212 28.8389 26.212 28.4192C26.212 27.9294 26.4049 27.4599 26.7481 27.1142ZM14.6879 0.308655C18.5834 0.308655 22.3193 1.87277 25.0738 4.65692C27.8283 7.44107 29.3758 11.2172 29.3758 15.1546C29.3758 23.3537 22.7998 30.0005 14.6879 30.0005C6.57599 30.0005 0 23.3537 0 15.1546C0 6.95539 6.57599 0.308655 14.6879 0.308655Z" fill="#24CCCC"/>
</g>
</g>
</svg>
