<svg width="24" height="24" viewBox="0 0 24 24" fill="none" xmlns="http://www.w3.org/2000/svg">
<g id="Iconly/Bold/Volume-Down">
<g id="Volume-Down">
<path id="Vector" d="M13.0254 1.26797e-05C14.4182 1.26797e-05 15.7172 1.00205 16.1861 2.60816C16.3582 3.27952 16.4282 3.95231 16.4954 4.60076L16.5584 5.19052C16.7992 7.15879 16.7992 16.8284 16.5584 18.8109L16.4954 19.4222C16.4352 20.0391 16.3736 20.6776 16.1959 21.3589C15.727 22.9608 14.477 24 13.0576 24C13.0128 24 12.968 24 12.9176 23.9986C12.1338 23.9986 11.2813 23.5176 10.7984 23.0982L6.09096 19.1774H3.67356C1.80767 19.1774 0.441494 17.8275 0.193735 15.739C-0.0918174 13.6505 -0.0358267 10.0675 0.193735 8.16941C0.46389 6.19255 1.89445 4.82264 3.67356 4.82264H6.09096L10.7088 0.959108C11.2659 0.475273 12.2485 -0.00283746 13.0254 1.26797e-05ZM20.1968 4.34453C20.7553 3.95374 21.5196 4.09402 21.9017 4.65945C23.2539 6.65062 24 9.25732 24 12C24 14.7427 23.2539 17.3494 21.9017 19.3406C21.6722 19.677 21.2971 19.8788 20.8953 19.8788C20.6448 19.8788 20.4026 19.8015 20.1968 19.6555C19.6425 19.2604 19.5053 18.4788 19.8903 17.912C20.9611 16.3345 21.5504 14.2345 21.5504 12C21.5504 9.76406 20.9611 7.66553 19.8903 6.08805C19.5053 5.52119 19.6425 4.73961 20.1968 4.34453Z" fill="#62F4F4"/>
</g>
</g>
</svg>
